<mxfile host="app.diagrams.net" modified="2024-04-09T02:59:03.276Z" agent="Mozilla/5.0 (Windows NT 10.0; Win64; x64) AppleWebKit/537.36 (KHTML, like Gecko) Chrome/123.0.0.0 Safari/537.36 Edg/123.0.0.0" etag="U0pTq0hxcS8SUkqRIw09" version="24.2.3" type="device">
  <diagram name="第 1 页" id="Q_NvmnDHcOoIueHc5T_4">
    <mxGraphModel dx="1295" dy="912" grid="1" gridSize="10" guides="1" tooltips="1" connect="1" arrows="1" fold="1" page="1" pageScale="1" pageWidth="827" pageHeight="1169" math="0" shadow="0">
      <root>
        <mxCell id="0" />
        <mxCell id="1" parent="0" />
        <mxCell id="QX2KOXCe06ZMYW71AaBL-1" value="&lt;font style=&quot;font-size: 15px;&quot;&gt;QUIC Client&lt;/font&gt;" style="image;points=[];aspect=fixed;html=1;align=center;shadow=0;dashed=0;image=img/lib/allied_telesis/computer_and_terminals/Personal_Computer.svg;" vertex="1" parent="1">
          <mxGeometry x="100" y="87.30000000000001" width="59.03" height="80" as="geometry" />
        </mxCell>
        <mxCell id="QX2KOXCe06ZMYW71AaBL-3" value="" style="endArrow=none;html=1;rounded=0;" edge="1" parent="1">
          <mxGeometry width="50" height="50" relative="1" as="geometry">
            <mxPoint x="130" y="197.3" as="sourcePoint" />
            <mxPoint x="130" y="477.3" as="targetPoint" />
          </mxGeometry>
        </mxCell>
        <mxCell id="QX2KOXCe06ZMYW71AaBL-6" value="" style="endArrow=none;html=1;rounded=0;" edge="1" parent="1">
          <mxGeometry width="50" height="50" relative="1" as="geometry">
            <mxPoint x="493.6" y="197.3" as="sourcePoint" />
            <mxPoint x="493.6" y="477.3" as="targetPoint" />
          </mxGeometry>
        </mxCell>
        <mxCell id="QX2KOXCe06ZMYW71AaBL-2" value="&lt;font style=&quot;font-size: 15px;&quot;&gt;QUIC Server&lt;/font&gt;" style="image;points=[];aspect=fixed;html=1;align=center;shadow=0;dashed=0;image=img/lib/allied_telesis/storage/Datacenter_Server_Half_Rack_ToR.svg;" vertex="1" parent="1">
          <mxGeometry x="450" y="70" width="88.2" height="114.6" as="geometry" />
        </mxCell>
        <mxCell id="QX2KOXCe06ZMYW71AaBL-7" value="" style="endArrow=classic;html=1;rounded=0;" edge="1" parent="1">
          <mxGeometry width="50" height="50" relative="1" as="geometry">
            <mxPoint x="150" y="257.3" as="sourcePoint" />
            <mxPoint x="480" y="257.3" as="targetPoint" />
          </mxGeometry>
        </mxCell>
        <mxCell id="QX2KOXCe06ZMYW71AaBL-8" value="&lt;font style=&quot;font-size: 15px;&quot;&gt;Initial Packet&lt;/font&gt;&lt;div style=&quot;font-size: 15px;&quot;&gt;&lt;font style=&quot;font-size: 15px;&quot;&gt;with&lt;/font&gt;&lt;/div&gt;&lt;div style=&quot;font-size: 15px;&quot;&gt;&lt;font style=&quot;font-size: 15px;&quot;&gt;Unknow Version&lt;/font&gt;&lt;/div&gt;" style="rounded=1;whiteSpace=wrap;html=1;" vertex="1" parent="1">
          <mxGeometry x="240" y="184.60000000000002" width="140" height="60" as="geometry" />
        </mxCell>
        <mxCell id="QX2KOXCe06ZMYW71AaBL-10" value="" style="endArrow=classic;html=1;rounded=0;" edge="1" parent="1">
          <mxGeometry width="50" height="50" relative="1" as="geometry">
            <mxPoint x="470" y="367.3" as="sourcePoint" />
            <mxPoint x="150" y="367.3" as="targetPoint" />
          </mxGeometry>
        </mxCell>
        <mxCell id="QX2KOXCe06ZMYW71AaBL-11" value="&lt;font style=&quot;font-size: 15px;&quot;&gt;Version Negotiation&lt;/font&gt;&lt;div style=&quot;font-size: 15px;&quot;&gt;&lt;font style=&quot;font-size: 15px;&quot;&gt;Packet&lt;/font&gt;&lt;/div&gt;" style="rounded=1;whiteSpace=wrap;html=1;" vertex="1" parent="1">
          <mxGeometry x="240" y="297.3" width="140" height="60" as="geometry" />
        </mxCell>
      </root>
    </mxGraphModel>
  </diagram>
</mxfile>
